<?xml version="1.0" encoding="UTF-8" standalone="no"?>
<!DOCTYPE svg PUBLIC "-//W3C//DTD SVG 1.1//EN" "http://www.w3.org/Graphics/SVG/1.1/DTD/svg11.dtd">
<svg xmlns="http://www.w3.org/2000/svg" xmlns:xl="http://www.w3.org/1999/xlink" version="1.1" xmlns:dc="http://purl.org/dc/elements/1.1/" viewBox="49 357 287 287" width="287" height="287">
  <defs/>
  <metadata> Produced by OmniGraffle 7.12.1 
    <dc:date>2019-12-15 05:04:04 +0000</dc:date>
  </metadata>
  <g id="Canvas_1" stroke-opacity="1" stroke-dasharray="none" fill="none" stroke="none" fill-opacity="1">
    <title>Canvas 1</title>
    <g id="Canvas_1: Layer 1">
      <title>Layer 1</title>
      <g id="Graphic_64">
        <path d="M 216.0827 609.954 C 179.2974 646.73926 119.65714 646.73926 82.8724 609.9551 C 46.08879 573.17035 46.08879 513.53065 82.87408 476.74536 L 168.5734 391.04603 C 205.3587 354.26074 264.99896 354.26074 301.7837 391.0449 C 338.56787 427.82965 338.56787 487.4699 301.78258 524.2552 Z" fill="#999"/>
      </g>
      <g id="Graphic_63">
        <circle cx="232.82307" cy="460.005" r="69.1984914315991" fill="#c0ffff"/>
      </g>
      <g id="Graphic_62">
        <path d="M 125.67965 540.0602 C 123.68666 540.0602 121.75115 539.0372 120.66954 537.18874 C 120.66675 537.1837 120.63773 537.13404 120.63438 537.12846 C 119.01866 534.34686 119.9468 530.7588 122.72672 529.1386 C 125.50608 527.51844 129.0601 528.4326 130.68474 531.20975 C 130.68753 531.2148 130.71655 531.26445 130.7199 531.27 C 132.33562 534.0522 131.40749 537.6397 128.62757 539.25987 C 127.69776 539.80235 126.68145 540.0602 125.67965 540.0602 Z" fill="black"/>
      </g>
      <g id="Graphic_61">
        <path d="M 223.97933 458.29495 C 219.35486 458.2955 214.93244 456.4789 211.62343 453.16875 C 207.8752 449.42107 206.04238 444.2441 206.5949 438.96497 C 206.92976 435.762 209.79173 433.4397 213.0014 433.77235 C 216.20436 434.1072 218.52943 436.9759 218.194 440.17884 C 218.00983 441.943 218.6204 443.67147 219.87055 444.92107 C 221.12127 446.1718 222.85307 446.78235 224.61333 446.5982 C 227.82635 446.2566 230.68496 448.5884 231.01983 451.7908 C 231.35525 454.9943 229.03018 457.8624 225.82721 458.1973 C 225.20995 458.2626 224.59213 458.29495 223.97933 458.29495 Z" fill="black"/>
      </g>
      <g id="Graphic_60">
        <path d="M 252.01464 486.3297 C 247.39073 486.3297 242.9672 484.51307 239.65818 481.20295 C 235.9105 477.4564 234.0777 472.27884 234.6302 467.0003 C 234.96507 463.7973 237.82425 461.4717 241.0367 461.80766 C 244.23967 462.1425 246.5653 465.0112 246.22932 468.21416 C 246.04514 469.97833 246.6557 471.7068 247.9053 472.9558 C 249.15602 474.2071 250.88336 474.81766 252.64865 474.6335 C 255.8533 474.29695 258.72028 476.6237 259.05514 479.8261 C 259.39056 483.0296 257.0655 485.8977 253.86253 486.2326 C 253.2447 486.2979 252.62744 486.3297 252.01464 486.3297 Z" fill="black"/>
      </g>
      <g id="Graphic_59">
        <path d="M 285.87992 513.05626 C 315.13246 483.8026 315.13246 436.20234 285.87936 406.94925 C 285.8576 406.9269 285.83527 406.90627 285.81295 406.8845 L 285.8135 406.88395 C 285.79118 406.8616 285.76886 406.8421 285.74653 406.8203 C 271.5902 392.73207 252.80436 384.9744 232.82586 384.9744 C 212.78485 384.9744 193.94265 392.77895 179.77123 406.9498 C 150.51814 436.20346 150.51814 483.80316 179.77123 513.0574 C 187.76665 521.0528 197.24942 527.02006 207.59502 530.7041 C 186.33735 529.09286 166.57148 520.0432 151.33911 504.81025 C 149.06204 502.53485 145.37017 502.53374 143.09143 504.81025 C 140.81436 507.0873 140.81436 510.7803 143.09143 513.05793 C 162.16077 532.12784 187.51606 542.63027 214.4854 542.6297 C 241.28227 542.62915 266.48296 532.2562 285.511 513.4168 C 285.63268 513.29624 285.7577 513.17904 285.8788 513.0574 L 285.87992 513.05626 Z M 188.01836 415.19637 C 199.98637 403.22836 215.89908 396.63713 232.8253 396.63713 C 239.48294 396.63713 245.98152 397.66125 252.14747 399.62634 C 247.98344 401.1974 244.1621 403.64303 240.92118 406.88395 C 235.90437 411.9002 233.14174 418.57123 233.1423 425.66587 C 233.1423 432.7605 235.90548 439.431 240.9223 444.4467 C 245.08632 448.6118 250.318 451.15566 255.65628 451.6111 C 256.24006 451.6613 256.81993 451.68586 257.39533 451.68586 C 262.56506 451.68586 267.37817 449.69175 271.09738 445.97254 C 278.79924 438.2701 279.0353 428.55295 271.69958 421.2172 C 269.42195 418.9407 265.73008 418.9407 263.4519 421.2172 C 261.17482 423.4943 261.17482 427.18727 263.4519 429.4649 C 264.69535 430.7078 267.28106 433.29406 262.85026 437.72597 C 261.14134 439.43433 259.0529 440.1978 256.64747 439.9902 C 254.0467 439.76864 251.39012 438.4225 249.16886 436.2001 C 243.3601 430.39135 243.35954 420.93983 249.16774 415.13163 C 256.9773 407.32206 269.66975 407.30364 277.50387 415.0719 C 277.54573 415.11377 277.58926 415.15395 277.63168 415.19637 C 302.33733 439.9026 302.33733 480.10236 277.63168 504.80913 C 277.2572 505.1836 276.87712 505.5492 276.49817 505.91586 C 264.668 517.184 249.22188 523.3689 232.82586 523.3689 C 215.9002 523.3689 199.9875 516.77826 188.01892 504.8097 C 163.31215 480.1029 163.31215 439.9026 188.01836 415.19637 Z" fill="black"/>
      </g>
      <g id="Graphic_58">
        <path d="M 93.62263 572.163 C 91.59057 572.163 89.61599 571.0987 88.54276 569.2028 C 86.89355 566.4368 87.8055 562.86884 90.57203 561.21964 C 93.33688 559.57044 96.92494 560.4885 98.57414 563.25394 L 98.6919 563.4582 C 100.2786 566.261 99.29243 569.8195 96.48962 571.4056 C 95.58326 571.9191 94.59597 572.163 93.62263 572.163 Z" fill="black"/>
      </g>
      <g id="Graphic_57">
        <path d="M 305.90698 386.9205 C 287.01455 368.0292 261.89645 357.625 235.1794 357.625 C 208.46176 357.625 183.34255 368.02976 164.44957 386.9222 L 78.75024 472.6215 C 39.750386 511.6219 39.74983 575.0785 78.74912 614.0789 C 97.64155 632.9708 122.75964 643.375 149.47727 643.375 C 176.19545 643.375 201.3141 632.97024 220.20653 614.0778 L 305.90586 528.3785 C 344.9057 489.37863 344.90627 425.9209 305.90698 386.9205 Z M 297.65818 520.1308 L 211.95885 605.8301 C 195.26927 622.5197 173.07955 631.7117 149.47727 631.7117 C 125.87499 631.7117 103.68583 622.5203 86.99625 605.83125 C 55.50403 574.339 52.80559 524.79656 78.88753 490.20184 C 78.32552 492.1379 77.80816 494.09016 77.36167 496.06474 C 73.28025 514.12056 74.21507 532.9304 80.06569 550.4605 C 80.88053 552.90275 83.15592 554.4476 85.59652 554.4476 C 86.2082 554.4476 86.83105 554.3505 87.44329 554.14566 C 90.4978 553.12656 92.14812 549.8231 91.12846 546.76806 C 80.52613 515.00014 88.3184 480.6197 111.42843 456.5771 C 110.67834 459.01323 110.01252 461.4795 109.44715 463.9787 C 105.36573 482.0345 106.30056 500.84435 112.15118 518.375 C 112.96601 520.8178 115.24085 522.3621 117.682 522.3621 C 118.29368 522.3621 118.91597 522.265 119.52877 522.0602 C 122.58328 521.0411 124.2336 517.73765 123.21394 514.6826 C 112.41962 482.3387 120.68014 447.2796 144.773 423.1879 C 144.74788 423.1795 144.72723 423.1706 144.70324 423.1622 L 172.69613 395.1693 C 189.38683 378.4803 211.57655 369.2883 235.17995 369.2883 C 258.78223 369.2883 280.97082 378.47973 297.6604 395.16875 C 332.1117 429.6206 332.11115 485.67895 297.65818 520.1308 Z" fill="black"/>
      </g>
      <g id="Line_56">
        <line x1="192.32805" y1="469.8042" x2="223.6103" y2="498.8918" stroke="black" stroke-linecap="round" stroke-linejoin="round" stroke-width="11.16211"/>
      </g>
    </g>
  </g>
</svg>
