<?xml version="1.0" encoding="UTF-8" standalone="no"?>
<!DOCTYPE svg PUBLIC "-//W3C//DTD SVG 1.1//EN" "http://www.w3.org/Graphics/SVG/1.1/DTD/svg11.dtd">
<svg xmlns="http://www.w3.org/2000/svg" xmlns:xl="http://www.w3.org/1999/xlink" version="1.1" xmlns:dc="http://purl.org/dc/elements/1.1/" viewBox="39 8 40 80" width="40" height="80">
  <defs/>
  <metadata> Produced by OmniGraffle 7.12.1
    <dc:date>2019-11-16 21:29:54 +0000</dc:date>
  </metadata>
  <g id="Canvas_1" stroke="none" stroke-opacity="1" stroke-dasharray="none" fill="none" fill-opacity="1">
    <title>Canvas 1</title>
    <g id="Canvas_1: Layer 1">
      <title>Layer 1</title>
      <g id="Graphic_5">
        <rect x="39.463717" y="8.5859" width="40" height="80"/>
      </g>
      <g id="Group_2">
        <g id="Graphic_3">
          <path d="M 54.327314 8.5859 C 50.914235 8.5859 48.151266 11.3509 48.151266 14.763324 C 48.15192 18.173126 50.91489 20.93937 54.327314 20.93937 C 57.73646 20.93937 60.50205 18.173126 60.50205 14.763324 C 60.50205 11.350245 57.73646 8.5859 54.327314 8.5859 Z M 47.50509 22.52395 C 43.13257 22.52395 39.555 26.067443 39.555 30.43406 L 39.555 49.59003 C 39.555 51.08096 40.728737 52.29205 42.222287 52.29205 C 43.71649 52.29205 44.92693 51.08227 44.92693 49.59003 L 44.92693 32.3182 L 46.30448 32.3182 C 46.30448 32.3182 46.33594 77.4137 46.33594 80.3759 C 46.33594 82.37472 47.959903 84 49.96135 84 C 51.96149 84 53.58218 82.37472 53.58218 80.3759 L 53.58218 52.47031 L 55.06983 52.47031 L 55.06983 80.3759 C 55.06983 82.37472 56.69052 84 58.69459 84 C 60.696035 84 62.33114 82.37472 62.33114 80.3759 L 62.33114 32.3182 L 63.72508 32.3182 L 63.72508 49.59003 C 63.72508 51.08096 64.93748 52.29205 66.42906 52.29205 C 67.92327 52.29205 69.09832 51.08227 69.09832 49.59003 L 69.09832 30.43406 C 69.09832 26.067443 65.51812 22.52395 61.14954 22.52395 L 47.50509 22.52395 Z" fill="black"/>
        </g>
      </g>
    </g>
  </g>
</svg>
